<?xml version="1.0" standalone="no"?>
<!DOCTYPE svg PUBLIC "-//W3C//DTD SVG 20010904//EN"
 "http://www.w3.org/TR/2001/REC-SVG-20010904/DTD/svg10.dtd">
<svg version="1.0" xmlns="http://www.w3.org/2000/svg"
 width="843.000000pt" height="843.000000pt" viewBox="0 0 843.000000 843.000000"
 preserveAspectRatio="xMidYMid meet">
<metadata>
Created by potrace 1.11, written by Peter Selinger 2001-2013
</metadata>
<g transform="translate(0.000000,843.000000) scale(0.100000,-0.100000)"
fill="#000000" stroke="none">
<path d="M1390 6295 c-7 -8 -18 -15 -26 -15 -7 0 -27 -28 -44 -63 -52 -105
-53 -260 -3 -360 20 -39 85 -104 117 -117 86 -32 207 21 247 109 38 86 39 143
2 245 -40 110 -76 158 -150 199 -39 22 -126 23 -143 2z"/>
<path d="M948 6153 c-16 -2 -28 -11 -28 -19 0 -8 -8 -14 -18 -14 -11 0 -28
-17 -42 -42 -33 -59 -35 -172 -3 -239 35 -75 69 -107 129 -125 120 -35 189 36
193 198 2 71 -1 83 -31 139 -18 34 -40 64 -50 67 -10 2 -18 8 -18 12 0 8 -71
31 -91 29 -8 -1 -26 -4 -41 -6z"/>
<path d="M568 5900 c-106 -58 -120 -230 -25 -328 41 -43 77 -62 118 -62 37 0
99 35 99 56 0 8 4 14 8 14 29 0 42 128 22 202 -6 20 -30 58 -53 83 -36 40 -49
48 -87 51 -32 3 -55 -1 -82 -16z"/>
<path d="M312 5627 c-91 -28 -132 -129 -101 -253 13 -51 52 -95 111 -125 33
-17 45 -18 72 -9 92 30 128 159 79 282 -8 21 -19 38 -24 38 -5 0 -9 6 -9 13 0
6 -21 24 -48 38 -40 22 -52 24 -80 16z"/>
<path d="M1200 5630 c-79 -13 -258 -88 -299 -126 -14 -13 -29 -24 -33 -24 -8
0 -95 -58 -116 -77 -7 -7 -33 -29 -59 -50 -60 -49 -195 -189 -207 -214 -5 -10
-13 -19 -17 -19 -15 0 -128 -177 -149 -232 -11 -29 -24 -62 -29 -73 -36 -84
-52 -212 -40 -333 9 -99 34 -241 49 -277 5 -11 18 -47 30 -80 12 -33 41 -109
64 -170 156 -397 170 -436 219 -605 9 -31 35 -144 57 -253 35 -173 40 -214 40
-333 0 -219 21 -307 104 -437 37 -58 113 -130 130 -124 6 2 10 15 8 28 -1 13
-4 128 -5 254 -3 251 3 209 -87 537 -70 254 -58 413 41 543 51 66 145 155 166
155 9 0 47 18 84 39 109 63 180 84 263 79 80 -5 111 -20 167 -81 65 -70 90
-209 54 -307 -8 -24 -19 -47 -23 -50 -12 -9 -52 -69 -52 -78 0 -5 -7 -15 -15
-22 -23 -19 -139 -219 -163 -280 -33 -86 -45 -184 -32 -265 8 -53 26 -102 76
-201 62 -123 67 -136 67 -200 0 -44 -6 -86 -17 -114 -27 -67 -31 -100 -14
-100 31 0 189 131 224 185 19 30 34 59 34 64 0 6 9 28 20 49 22 42 50 182 50
247 0 22 -10 74 -21 115 -11 41 -23 107 -26 146 -4 62 -1 82 32 180 21 60 51
138 67 174 17 36 45 106 63 155 18 50 44 117 57 150 l23 60 3 -243 2 -243 24
-10 c17 -8 29 -8 45 0 20 11 21 19 21 141 0 97 3 130 13 130 248 0 298 11 273
61 -11 23 -15 24 -149 27 l-137 3 0 99 0 100 139 0 c77 0 146 3 155 6 18 7 22
59 6 69 -6 4 -90 6 -187 5 -165 -1 -175 0 -167 17 14 29 9 134 -9 193 -9 30
-35 92 -57 137 -22 45 -40 85 -40 88 0 3 -18 32 -39 63 -38 55 -100 122 -210
227 -35 33 -51 56 -49 70 2 14 9 19 23 17 65 -11 133 -6 159 11 44 29 69 98
61 164 -6 46 -14 63 -47 99 l-40 43 -4 138 c-4 122 -8 144 -29 186 -14 27 -25
60 -25 73 0 13 -4 24 -8 24 -5 0 -24 27 -43 60 -19 33 -39 60 -45 60 -7 0 -14
6 -17 14 -10 26 -131 104 -194 125 -63 21 -129 25 -213 11z m413 -1512 c55
-74 52 -160 -7 -210 -40 -33 -82 -15 -115 49 -23 45 -7 153 27 181 29 23 69
14 95 -20z m-272 -18 c51 -28 61 -120 16 -167 -26 -29 -49 -29 -83 0 -23 20
-28 32 -28 76 -1 46 3 56 27 77 31 27 40 29 68 14z m-193 -110 c16 -15 22 -33
22 -61 0 -58 -14 -79 -53 -79 -45 0 -57 16 -57 74 0 78 42 109 88 66z m-155
-115 c24 -24 31 -89 13 -124 -33 -63 -117 -43 -124 29 -5 51 7 98 26 103 36
10 71 6 85 -8z m-143 -182 c17 -22 20 -36 15 -67 -8 -51 -21 -66 -56 -66 -40
0 -63 38 -56 91 3 22 11 46 17 54 20 24 56 18 80 -12z"/>
<path d="M63 5235 c-50 -22 -66 -64 -58 -154 8 -87 17 -106 74 -145 68 -48
133 -21 166 67 16 43 17 55 5 100 -17 68 -35 104 -63 121 -35 22 -88 27 -124
11z"/>
<path d="M2870 5013 c-50 -10 -149 -62 -176 -92 -21 -24 -30 -28 -37 -19 -6 9
-7 8 -3 -4 3 -9 -2 -32 -11 -49 -31 -62 -34 -131 -10 -225 5 -21 40 -69 66
-92 47 -40 144 -79 265 -106 137 -31 169 -43 213 -80 59 -49 63 -137 11 -194
-26 -27 -77 -56 -85 -48 -3 3 -12 -1 -20 -9 -25 -26 -167 -20 -229 9 -57 27
-97 65 -115 110 -19 49 -39 66 -75 66 -85 0 -86 -122 0 -214 72 -78 177 -116
319 -116 211 0 344 87 378 248 30 146 -41 273 -176 313 -25 7 -45 17 -45 21 0
4 -12 8 -26 8 -14 0 -70 11 -124 25 -116 29 -204 70 -196 91 3 7 0 13 -6 11
-7 -1 -12 3 -13 10 0 6 -3 15 -7 19 -11 11 -10 58 3 91 8 22 12 25 21 13 8
-12 9 -12 4 2 -5 18 10 39 49 64 43 28 267 31 250 3 -3 -5 0 -6 7 -4 17 7 72
-50 63 -64 -3 -7 -2 -10 4 -9 6 2 21 -15 34 -37 28 -50 59 -67 98 -53 36 12
42 23 41 63 -3 88 -78 179 -183 223 -62 26 -84 30 -168 30 -53 0 -107 -2 -121
-5z"/>
<path d="M3790 5001 c-59 -19 -141 -63 -160 -86 -7 -8 -16 -12 -21 -9 -5 3 -8
0 -7 -8 2 -7 -3 -12 -10 -10 -8 1 -11 -2 -7 -7 8 -13 -26 -52 -38 -44 -6 3 -7
1 -4 -5 4 -5 -4 -33 -18 -61 -36 -71 -55 -169 -55 -286 0 -159 27 -253 101
-361 16 -23 26 -44 24 -48 -3 -3 -2 -4 1 -2 3 3 33 -15 66 -40 75 -55 138 -75
254 -81 102 -6 175 6 252 42 59 27 156 114 179 160 9 16 19 32 23 35 4 3 17
43 30 90 47 170 26 408 -46 522 -14 21 -22 44 -18 50 4 6 3 8 -2 5 -6 -3 -30
15 -54 40 -83 83 -195 123 -345 122 -57 0 -110 -6 -145 -18z m267 -126 c71
-21 143 -89 185 -173 33 -67 33 -68 33 -217 l0 -150 -34 -68 c-62 -123 -164
-187 -296 -187 -200 0 -335 163 -335 404 0 127 48 265 112 320 18 16 41 36 50
44 46 39 196 53 285 27z"/>
<path d="M4625 5011 c-17 -4 -34 -16 -42 -31 -15 -31 -19 -933 -4 -973 16 -42
54 -47 328 -47 291 0 313 5 313 64 0 21 -8 40 -21 52 -19 17 -40 19 -246 21
-124 1 -226 3 -229 5 -2 2 -4 205 -4 451 -1 246 -5 445 -10 442 -4 -3 -10 -1
-12 4 -5 13 -40 19 -73 12z"/>
<path d="M6203 5013 c-53 -10 -53 -10 -53 -524 0 -454 1 -478 19 -500 l19 -24
274 -3 c293 -2 311 0 335 48 15 29 3 54 -35 74 -21 11 -76 14 -232 14 -113 1
-213 1 -222 1 -17 1 -18 29 -18 436 l0 436 -25 24 c-13 14 -28 24 -32 24 -4
-1 -18 -4 -30 -6z"/>
<path d="M6761 5009 c-55 -12 -66 -49 -31 -107 11 -18 17 -38 14 -44 -4 -6 -3
-8 4 -5 6 4 28 -20 51 -55 22 -35 72 -110 110 -167 39 -56 71 -104 71 -106 0
-1 18 -30 40 -63 l40 -60 0 -205 c0 -235 2 -240 74 -235 61 4 65 20 66 254 l2
199 56 85 c31 47 61 93 67 102 29 48 144 216 157 228 8 8 15 17 15 20 1 14 41
70 45 63 3 -4 3 -2 1 5 -1 8 -3 27 -3 43 0 40 -35 62 -78 49 -34 -9 -62 -36
-88 -83 -8 -16 -20 -25 -26 -21 -7 5 -8 3 -3 -5 9 -15 -75 -142 -89 -134 -5 3
-6 1 -2 -5 4 -6 -5 -30 -20 -52 -20 -31 -30 -38 -37 -28 -6 9 -7 8 -3 -5 3
-10 -9 -39 -30 -73 l-36 -56 -34 51 c-19 28 -32 57 -28 63 4 6 3 8 -3 5 -11
-7 -177 240 -177 264 0 9 -5 15 -11 13 -6 -3 -18 9 -28 26 -23 39 -44 49 -86
39z"/>
<path d="M5365 4985 l-25 -24 0 -474 c0 -452 1 -476 19 -498 l19 -24 279 -3
c175 -2 290 1 306 7 53 20 52 99 -1 119 -16 6 -120 11 -247 11 -121 0 -223 1
-227 1 -5 0 -8 74 -8 165 l0 165 221 0 c216 0 252 5 271 34 14 20 8 56 -12 76
-19 19 -33 20 -250 20 l-231 0 3 158 3 157 244 5 244 5 19 26 c24 32 11 75
-27 89 -15 6 -145 10 -301 10 l-275 0 -24 -25z"/>
<path d="M2750 4990 c-8 -5 -10 -10 -5 -10 6 0 17 5 25 10 8 5 11 10 5 10 -5
0 -17 -5 -25 -10z"/>
<path d="M6855 4989 c-4 -6 -5 -12 -2 -15 2 -3 7 2 10 11 7 17 1 20 -8 4z"/>
<path d="M2615 4849 c-4 -6 -5 -12 -2 -15 2 -3 7 2 10 11 7 17 1 20 -8 4z"/>
<path d="M6950 4841 c0 -6 4 -13 10 -16 6 -3 7 1 4 9 -7 18 -14 21 -14 7z"/>
<path d="M1880 4648 c-15 -25 -20 -51 -20 -110 0 -97 15 -118 86 -118 40 0 51
5 80 35 53 56 59 146 13 199 -20 22 -31 26 -81 26 -55 0 -59 -2 -78 -32z"/>
<path d="M2078 4394 c-42 -22 -71 -87 -65 -143 3 -25 10 -47 16 -49 6 -2 11
-10 11 -17 0 -26 73 -35 113 -13 32 17 41 29 57 76 11 36 11 49 1 80 -27 76
-73 99 -133 66z"/>
<path d="M2705 3819 c-113 -9 -182 -55 -230 -154 -71 -145 -29 -376 82 -451
67 -45 77 -48 178 -48 78 -1 108 3 137 17 76 38 129 112 153 212 20 88 19 134
-5 215 -46 156 -148 224 -315 209z m135 -100 c42 -26 56 -42 80 -94 42 -93 33
-231 -22 -306 -61 -85 -197 -106 -275 -42 -58 46 -85 103 -91 189 -8 121 34
220 109 257 51 25 155 23 199 -4z"/>
<path d="M3265 3800 c-22 -11 -56 -34 -75 -52 -19 -18 -39 -31 -43 -30 -5 1
-6 -2 -3 -7 3 -5 -4 -31 -16 -57 -18 -40 -22 -68 -22 -154 -1 -123 17 -186 69
-248 60 -69 104 -87 220 -87 111 0 148 13 214 76 105 100 115 354 18 480 -18
25 -55 55 -86 71 -47 25 -64 28 -145 28 -71 0 -100 -4 -131 -20z m224 -74 c39
-21 86 -77 102 -123 8 -21 14 -74 13 -118 0 -100 -29 -165 -93 -210 -38 -27
-51 -30 -116 -30 -67 0 -76 3 -112 31 -59 48 -86 104 -91 193 -2 42 1 94 7
117 15 55 61 116 102 137 43 21 150 22 188 3z"/>
<path d="M3718 3813 c-24 -6 -25 -68 -2 -77 9 -3 56 -6 105 -6 l89 0 0 -279
c0 -269 1 -280 20 -286 10 -3 28 -1 40 5 19 10 20 19 20 285 l0 275 86 0 c47
0 94 5 105 10 27 15 25 58 -3 69 -24 9 -429 13 -460 4z"/>
<path d="M4578 3795 c-100 -53 -150 -154 -149 -304 0 -127 20 -180 91 -252 42
-42 66 -58 102 -67 94 -24 199 -11 262 30 67 44 107 133 74 166 -23 23 -46 12
-83 -39 -121 -168 -337 -83 -352 139 -6 78 6 131 43 188 33 51 69 73 133 81
42 5 60 1 106 -22 39 -19 55 -32 51 -42 -3 -8 -1 -11 4 -8 5 3 17 -10 27 -29
18 -38 39 -51 67 -40 28 11 25 73 -7 118 -55 79 -115 106 -235 106 -72 -1 -95
-5 -134 -25z"/>
<path d="M5262 3812 c-13 -9 -40 -75 -119 -292 -25 -69 -61 -164 -79 -211 -41
-103 -42 -126 -10 -140 38 -18 58 2 91 93 l31 83 120 3 121 3 21 -58 c11 -32
23 -68 27 -79 3 -12 14 -29 25 -39 17 -15 24 -16 46 -6 24 10 26 16 20 49 -3
20 -26 91 -52 157 -25 66 -47 127 -47 135 -1 8 -4 17 -7 20 -8 7 -90 233 -90
246 0 32 -66 56 -98 36z m98 -274 c22 -60 38 -108 37 -109 -12 -5 -197 -2
-197 3 0 4 21 69 47 145 l47 137 14 -34 c8 -19 31 -83 52 -142z"/>
<path d="M5649 3799 c-18 -18 -19 -35 -19 -307 0 -244 2 -291 16 -310 18 -26
46 -28 68 -6 13 12 16 39 16 130 l0 114 63 0 c78 0 85 -7 153 -143 51 -103 70
-123 109 -113 37 9 40 40 9 94 -15 26 -42 76 -60 112 -31 59 -32 65 -16 74 35
19 89 85 96 116 24 125 -32 224 -143 249 -23 5 -95 9 -158 10 -100 0 -117 -3
-134 -20z m280 -72 c56 -20 86 -97 61 -161 -18 -49 -64 -66 -172 -66 l-98 0 0
113 c0 63 3 117 7 120 11 12 166 7 202 -6z"/>
<path d="M6182 3799 c-15 -24 -17 -565 -2 -603 l10 -26 189 0 c118 0 192 4
196 10 4 6 10 8 15 5 10 -6 0 36 -13 53 -7 9 -51 12 -158 12 l-149 0 0 105 0
105 138 0 c75 0 143 4 150 9 8 5 12 21 10 37 l-3 29 -147 3 -148 3 0 94 0 95
144 0 c118 0 147 3 160 16 20 20 20 38 0 59 -14 13 -43 16 -198 15 -168 -1
-183 -3 -194 -21z"/>
<path d="M6867 3813 c-4 -3 -7 -146 -7 -318 0 -327 1 -335 45 -335 44 0 45 9
45 326 0 166 -3 309 -6 318 -6 16 -64 23 -77 9z"/>
<path d="M7067 3813 c-4 -3 -7 -147 -7 -319 0 -309 0 -313 21 -325 16 -8 28
-8 45 0 l24 11 0 237 1 238 22 -29 c12 -17 69 -98 127 -182 181 -262 190 -274
214 -280 13 -3 34 -1 45 6 21 11 21 16 21 325 l0 315 -24 6 c-14 3 -33 4 -43
2 -17 -3 -18 -21 -23 -247 l-5 -244 -34 53 c-30 46 -136 199 -213 307 -13 18
-39 55 -58 82 -31 45 -39 51 -71 51 -20 0 -39 -3 -42 -7z"/>
<path d="M7819 3793 c-109 -56 -155 -157 -147 -328 6 -123 26 -174 99 -239 60
-54 120 -71 225 -63 81 6 99 13 156 65 73 66 87 134 31 148 -21 6 -30 2 -42
-16 -65 -95 -138 -132 -221 -111 -25 6 -56 20 -70 30 -35 25 -72 82 -66 103 2
10 0 16 -4 13 -13 -8 -23 98 -15 150 7 49 26 99 48 128 16 20 32 23 21 5 -4
-8 -3 -10 2 -5 5 5 9 14 9 20 0 19 66 47 110 47 58 0 123 -37 160 -89 39 -56
59 -70 83 -55 26 17 26 60 1 102 -53 87 -123 122 -243 122 -70 0 -91 -4 -137
-27z"/>
<path d="M1378 3723 c7 -3 16 -2 19 1 4 3 -2 6 -13 5 -11 0 -14 -3 -6 -6z"/>
<path d="M8332 3264 c-56 -39 6 -127 62 -90 33 21 38 60 11 86 -26 24 -43 25
-73 4z"/>
</g>
</svg>
